# xmcd CD database file
#
# Track frame offsets:
#	182
#	11582
#	25952
#	43815
#	59215
#	73480
#	86210
#	99165
#	113397
#	128837
#	145150
#
# Disc length: 2170 seconds
#
# Revision: 2
# Processed by: cddbd v1.5.1PL0 Copyright (c) Steve Scherf et al.
# Submitted via: CDex 1.51
#
DISCID=9c08780b
DTITLE=Lorrie Morgan - Greater Need
DYEAR=1900
DGENRE=Country
TTITLE0=Soldier of Love
TTITLE1=I Just Might Be
TTITLE2=Greater Need
TTITLE3=Steppin' Stones
TTITLE4=I Can Buy My Own Roses
TTITLE5=Don't Stop On My Word
TTITLE6=By My Side
TTITLE7=Reading My Heart
TTITLE8=Good As I Was To You
TTITLE9=She Walked Beside The Wagon
TTITLE10=Back Among The Living
EXTD=
EXTT0=
EXTT1=
EXTT2=
EXTT3=(Featuring Vince Gill and Travis Tritt)
EXTT4=
EXTT5=
EXTT6=(Duet with Jon Randall)
EXTT7=
EXTT8=
EXTT9=
EXTT10=
PLAYORDER=
